<svg xmlns="http://www.w3.org/2000/svg">

  <symbol viewBox="0 0 24 24" class="instagram-icon">
    <path
      d="M15,3C8.373,3,3,8.373,3,15c0,6.016,4.432,10.984,10.206,11.852V18.18h-2.969v-3.154h2.969v-2.099c0-3.475,1.693-5,4.581-5 c1.383,0,2.115,0.103,2.461,0.149v2.753h-1.97c-1.226,0-1.654,1.163-1.654,2.473v1.724h3.593L19.73,18.18h-3.106v8.697 C22.481,26.083,27,21.075,27,15C27,8.373,21.627,3,15,3z" />
  </symbol>

  <symbol viewBox="0 0 24 24" class="facebook-icon">
    <path d="M15,3C8.373,3,3,8.373,3,15c0,6.016,4.432,10.984,10.206,11.852V18.18h-2.969v-3.154h2.969v-2.099c0-3.475,1.693-5,4.581-5 c1.383,0,2.115,0.103,2.461,0.149v2.753h-1.97c-1.226,0-1.654,1.163-1.654,2.473v1.724h3.593L19.73,18.18h-3.106v8.697 C22.481,26.083,27,21.075,27,15C27,8.373,21.627,3,15,3z"/>
  </symbol>

  <symbol viewBox="0 0 24 24" class="youtube-icon">
    <path d="M 44.898438 14.5 C 44.5 12.300781 42.601563 10.699219 40.398438 10.199219 C 37.101563 9.5 31 9 24.398438 9 C 17.800781 9 11.601563 9.5 8.300781 10.199219 C 6.101563 10.699219 4.199219 12.199219 3.800781 14.5 C 3.398438 17 3 20.5 3 25 C 3 29.5 3.398438 33 3.898438 35.5 C 4.300781 37.699219 6.199219 39.300781 8.398438 39.800781 C 11.898438 40.5 17.898438 41 24.5 41 C 31.101563 41 37.101563 40.5 40.601563 39.800781 C 42.800781 39.300781 44.699219 37.800781 45.101563 35.5 C 45.5 33 46 29.398438 46.101563 25 C 45.898438 20.5 45.398438 17 44.898438 14.5 Z M 19 32 L 19 18 L 31.199219 25 Z"/>
  </symbol>

</svg>